<svg width="20" height="16" viewBox="0 0 20 16" fill="none" xmlns="http://www.w3.org/2000/svg">
<path d="M11.0001 4.0071C14.1691 4.0071 15.9661 6.1041 16.2271 8.6371H16.3071C16.7913 8.63645 17.271 8.7312 17.7186 8.91594C18.1663 9.10069 18.5732 9.37181 18.916 9.71382C19.2588 10.0558 19.531 10.462 19.7168 10.9092C19.9026 11.3564 19.9986 11.8358 19.9991 12.3201C19.9984 12.8043 19.9024 13.2836 19.7165 13.7307C19.5306 14.1778 19.2585 14.5838 18.9156 14.9257C18.5728 15.2676 18.166 15.5387 17.7184 15.7234C17.2708 15.908 16.7913 16.0028 16.3071 16.0021H5.69308C5.2089 16.0028 4.72933 15.908 4.28175 15.7234C3.83417 15.5387 3.42735 15.2676 3.08451 14.9257C2.74168 14.5838 2.46955 14.1778 2.28365 13.7307C2.09775 13.2836 2.00174 12.8043 2.00108 12.3201C2.00161 11.8358 2.09753 11.3564 2.28336 10.9092C2.4692 10.462 2.74131 10.0558 3.08416 9.71382C3.42701 9.37181 3.83387 9.10069 4.28152 8.91594C4.72916 8.7312 5.20881 8.63645 5.69308 8.6371H5.77308C6.03608 6.0871 7.83208 4.0071 11.0001 4.0071ZM2.36608 8.1621C2.43554 8.32969 2.44189 8.51678 2.38397 8.68869C2.32605 8.86061 2.20779 9.00571 2.05108 9.0971L1.96008 9.1421L1.03308 9.5261C0.857726 9.59758 0.661825 9.60007 0.484705 9.53309C0.307585 9.46611 0.162359 9.3346 0.0781806 9.16498C-0.00599798 8.99536 -0.0228974 8.80017 0.0308748 8.6186C0.084647 8.43704 0.20511 8.28253 0.368081 8.1861L0.459081 8.1401L1.38608 7.7571C1.56975 7.68091 1.77616 7.68077 1.95993 7.75671C2.1437 7.83266 2.28979 7.97847 2.36608 8.1621ZM8.85308 3.3291L8.68108 3.3871C6.89708 4.0171 5.61908 5.3921 5.06608 7.2101L4.99608 7.4601L4.93808 7.6981L4.73208 7.7371C4.1335 7.86175 3.56576 8.10448 3.06208 8.4511C2.60375 7.66333 2.43255 6.74108 2.57761 5.8413C2.72268 4.94151 3.17504 4.1198 3.85772 3.51598C4.54041 2.91216 5.41123 2.56355 6.32199 2.52948C7.23276 2.49541 8.12719 2.77798 8.85308 3.3291ZM0.938082 3.3601L1.04308 3.3951L1.97008 3.7791C2.14421 3.85209 2.2844 3.98807 2.36266 4.15989C2.44093 4.33171 2.45151 4.52673 2.3923 4.706C2.33308 4.88528 2.20843 5.03563 2.04323 5.12704C1.87803 5.21844 1.68443 5.24418 1.50108 5.1991L1.39808 5.1661L0.471082 4.7821C0.296957 4.70911 0.156768 4.57313 0.0785025 4.40131C0.000237122 4.2295 -0.0103457 4.03448 0.0488668 3.8552C0.108079 3.67592 0.23273 3.52557 0.397934 3.43417C0.563137 3.34276 0.756737 3.31703 0.940081 3.3621M4.75508 0.376103L4.80008 0.467103L5.18408 1.3941C5.25555 1.56946 5.25805 1.76536 5.19107 1.94248C5.12409 2.1196 4.99258 2.26482 4.82296 2.349C4.65334 2.43318 4.45815 2.45008 4.27658 2.39631C4.09502 2.34254 3.94051 2.22207 3.84408 2.0591L3.79808 1.9681L3.41508 1.0411C3.34361 0.865747 3.34111 0.669846 3.4081 0.492726C3.47508 0.315607 3.60658 0.17038 3.7762 0.0862019C3.94583 0.00202332 4.14101 -0.0148763 4.32258 0.0388958C4.50415 0.092668 4.65865 0.213131 4.75508 0.376103ZM9.10908 0.0571029C9.27511 0.126014 9.41087 0.252265 9.49163 0.412866C9.57238 0.573466 9.59277 0.757731 9.54908 0.932103L9.51408 1.0371L9.13108 1.9641C9.05921 2.1399 8.92332 2.28187 8.75084 2.36138C8.57837 2.44089 8.38215 2.452 8.2018 2.39247C8.02145 2.33295 7.8704 2.20722 7.77914 2.04067C7.68787 1.87412 7.66319 1.67914 7.71008 1.4951L7.74508 1.3891L8.12908 0.463103C8.16676 0.37209 8.222 0.289391 8.29165 0.21973C8.36129 0.150069 8.44398 0.0948099 8.53498 0.0571082C8.62599 0.0194065 8.72353 9.00314e-07 8.82203 0C8.92054 -9.00251e-07 9.01808 0.0194029 9.10908 0.0571029Z" fill="white"/>
</svg>
