<svg width="21" height="21" viewBox="0 0 21 21" fill="none" xmlns="http://www.w3.org/2000/svg">
<path d="M10.2849 0C10.4554 0 10.6189 0.0677293 10.7394 0.188288C10.86 0.308848 10.9277 0.472361 10.9277 0.642857V1.92514C10.9277 2.09564 10.86 2.25915 10.7394 2.37971C10.6189 2.50027 10.4554 2.568 10.2849 2.568C10.1144 2.568 9.95085 2.50027 9.83029 2.37971C9.70973 2.25915 9.642 2.09564 9.642 1.92514V0.642857C9.642 0.472361 9.70973 0.308848 9.83029 0.188288C9.95085 0.0677293 10.1144 0 10.2849 0ZM15.4277 10.2857C15.4277 10.9611 15.2947 11.6298 15.0362 12.2538C14.7778 12.8778 14.399 13.4447 13.9214 13.9223C13.4438 14.3998 12.8769 14.7786 12.2529 15.0371C11.629 15.2955 10.9602 15.4286 10.2849 15.4286C9.60949 15.4286 8.94073 15.2955 8.31677 15.0371C7.69281 14.7786 7.12587 14.3998 6.64831 13.9223C6.17075 13.4447 5.79193 12.8778 5.53348 12.2538C5.27502 11.6298 5.142 10.9611 5.142 10.2857C5.142 8.92174 5.68384 7.61364 6.64831 6.64917C7.61278 5.68469 8.92089 5.14286 10.2849 5.14286C11.6488 5.14286 12.9569 5.68469 13.9214 6.64917C14.8859 7.61364 15.4277 8.92174 15.4277 10.2857ZM19.9277 10.9286C20.0982 10.9286 20.2617 10.8608 20.3823 10.7403C20.5028 10.6197 20.5706 10.4562 20.5706 10.2857C20.5706 10.1152 20.5028 9.9517 20.3823 9.83115C20.2617 9.71059 20.0982 9.64286 19.9277 9.64286H18.6454C18.4749 9.64286 18.3114 9.71059 18.1909 9.83115C18.0703 9.9517 18.0026 10.1152 18.0026 10.2857C18.0026 10.4562 18.0703 10.6197 18.1909 10.7403C18.3114 10.8608 18.4749 10.9286 18.6454 10.9286H19.9277ZM10.2849 18.0034C10.4554 18.0034 10.6189 18.0712 10.7394 18.1917C10.86 18.3123 10.9277 18.4758 10.9277 18.6463V19.9286C10.9277 20.0991 10.86 20.2626 10.7394 20.3831C10.6189 20.5037 10.4554 20.5714 10.2849 20.5714C10.1144 20.5714 9.95085 20.5037 9.83029 20.3831C9.70973 20.2626 9.642 20.0991 9.642 19.9286V18.6463C9.642 18.4758 9.70973 18.3123 9.83029 18.1917C9.95085 18.0712 10.1144 18.0034 10.2849 18.0034ZM1.92771 10.9286C2.09821 10.9286 2.26172 10.8608 2.38228 10.7403C2.50284 10.6197 2.57057 10.4562 2.57057 10.2857C2.57057 10.1152 2.50284 9.9517 2.38228 9.83115C2.26172 9.71059 2.09821 9.64286 1.92771 9.64286H0.642857C0.472361 9.64286 0.308848 9.71059 0.188289 9.83115C0.0677295 9.9517 0 10.1152 0 10.2857C0 10.4562 0.0677295 10.6197 0.188289 10.7403C0.308848 10.8608 0.472361 10.9286 0.642857 10.9286H1.92771ZM2.75914 2.75914C2.87968 2.63876 3.04307 2.57114 3.21343 2.57114C3.38379 2.57114 3.54718 2.63876 3.66771 2.75914L4.95343 4.04486C5.06698 4.16672 5.1288 4.3279 5.12586 4.49445C5.12293 4.66099 5.05546 4.81989 4.93768 4.93768C4.81989 5.05546 4.66099 5.12293 4.49445 5.12586C4.3279 5.1288 4.16672 5.06698 4.04486 4.95343L2.75914 3.66771C2.63876 3.54718 2.57114 3.38379 2.57114 3.21343C2.57114 3.04307 2.63876 2.87968 2.75914 2.75914ZM3.66771 17.8106C3.54585 17.9241 3.38467 17.9859 3.21812 17.983C3.05158 17.9801 2.89268 17.9126 2.7749 17.7948C2.65711 17.677 2.58965 17.5181 2.58671 17.3516C2.58377 17.185 2.64559 17.0239 2.75914 16.902L4.04486 15.6163C4.16672 15.5027 4.3279 15.4409 4.49445 15.4438C4.66099 15.4468 4.81989 15.5143 4.93768 15.632C5.05546 15.7498 5.12293 15.9087 5.12586 16.0753C5.1288 16.2418 5.06698 16.403 4.95343 16.5249L3.66771 17.8106ZM17.8106 2.75914C17.69 2.63876 17.5266 2.57114 17.3563 2.57114C17.1859 2.57114 17.0225 2.63876 16.902 2.75914L15.6163 4.04486C15.5531 4.10371 15.5025 4.17468 15.4673 4.25354C15.4322 4.3324 15.4133 4.41752 15.4118 4.50384C15.4103 4.59015 15.4261 4.67589 15.4585 4.75594C15.4908 4.83599 15.5389 4.9087 15.6 4.96975C15.661 5.03079 15.7337 5.07892 15.8138 5.11125C15.8938 5.14358 15.9796 5.15946 16.0659 5.15794C16.1522 5.15641 16.2373 5.13752 16.3162 5.10238C16.395 5.06725 16.466 5.01659 16.5249 4.95343L17.8106 3.66771C17.931 3.54718 17.9986 3.38379 17.9986 3.21343C17.9986 3.04307 17.931 2.87968 17.8106 2.75914ZM16.902 17.8114C17.0239 17.925 17.185 17.9868 17.3516 17.9839C17.5181 17.9809 17.677 17.9135 17.7948 17.7957C17.9126 17.6779 17.9801 17.519 17.983 17.3524C17.9859 17.1859 17.9241 17.0247 17.8106 16.9029L16.5249 15.6171C16.403 15.5036 16.2418 15.4418 16.0753 15.4447C15.9087 15.4476 15.7498 15.5151 15.632 15.6329C15.5143 15.7507 15.4468 15.9096 15.4439 16.0761C15.4409 16.2427 15.5027 16.4039 15.6163 16.5257L16.902 17.8114Z" fill="white"/>
</svg>
