<svg width="18" height="15" viewBox="0 0 18 15" fill="none" xmlns="http://www.w3.org/2000/svg">
<path d="M9 2.3365e-05C12.169 2.3365e-05 13.966 2.09702 14.227 4.63002H14.307C14.7914 4.62923 15.2711 4.72389 15.7189 4.90857C16.1666 5.09326 16.5736 5.36436 16.9166 5.70638C17.2595 6.04841 17.5317 6.45465 17.7176 6.90191C17.9035 7.34917 17.9995 7.82867 18 8.31302C17.9993 8.79721 17.9033 9.27652 17.7174 9.7236C17.5315 10.1707 17.2594 10.5768 16.9166 10.9187C16.5737 11.2606 16.1669 11.5316 15.7193 11.7163C15.2718 11.901 14.7922 11.9957 14.308 11.995H13.726L12.143 14.632C12.0482 14.7973 11.8941 14.9204 11.712 14.9762C11.5298 15.032 11.3332 15.0163 11.1621 14.9324C10.9911 14.8486 10.8583 14.7027 10.7909 14.5245C10.7234 14.3463 10.7263 14.1492 10.799 13.973L10.844 13.882L11.994 11.995H9.858L8.275 14.632C8.18025 14.7973 8.02614 14.9204 7.84396 14.9762C7.66179 15.032 7.4652 15.0163 7.29413 14.9324C7.12306 14.8486 6.99033 14.7027 6.92288 14.5245C6.85544 14.3463 6.85834 14.1492 6.931 13.973L6.976 13.882L8.126 11.995H5.987L4.406 14.632C4.31125 14.7973 4.15714 14.9204 3.97496 14.9762C3.79279 15.032 3.5962 15.0163 3.42513 14.9324C3.25406 14.8486 3.12133 14.7027 3.05388 14.5245C2.98644 14.3463 2.98934 14.1492 3.062 13.973L3.107 13.882L4.255 11.995H3.693C3.20873 11.9958 2.72905 11.9012 2.28136 11.7166C1.83366 11.5319 1.42673 11.2609 1.08379 10.919C0.740846 10.5771 0.468622 10.171 0.282664 9.72383C0.0967062 9.27669 0.000656082 8.79729 0 8.31302C0.00039353 7.82859 0.0962498 7.34898 0.28209 6.9016C0.467931 6.45423 0.740113 6.04787 1.08308 5.70574C1.42604 5.36361 1.83307 5.09242 2.2809 4.90767C2.72872 4.72292 3.20856 4.62823 3.693 4.62902H3.773C4.035 2.07902 5.831 2.3365e-05 9 2.3365e-05Z" fill="#AEDDFF"/>
</svg>
