<svg width="96" height="100" viewBox="0 0 96 100" fill="none" xmlns="http://www.w3.org/2000/svg">
<path d="M85.9987 41.0436C86.2434 41.8847 86.4715 42.7716 86.4939 43.6515C86.7517 53.6562 78.8142 62.8269 68.5755 64.2109C67.8617 64.3076 63.8559 64.3909 63.32 64.1323C62.5772 64.1217 60.8081 63.6821 60.0735 63.4379C59.2568 63.2577 58.3534 62.9423 57.4401 62.5499C57.274 62.4785 57.1076 62.4047 56.9413 62.3286C56.6088 62.1765 56.2769 62.0155 55.9492 61.8486C55.6214 61.6816 55.2979 61.5087 54.9823 61.3326C54.1142 60.8486 53.3059 60.3407 52.6339 59.8673C51.974 59.4023 51.3425 59.0326 50.7133 58.5105C50.4999 58.4183 48.571 56.8772 48.2058 56.6087C45.4043 54.5488 42.7013 52.5301 39.3601 51.3322C35.6752 50.0109 31.8344 50.2956 28.1794 51.5696C26.8505 52.0328 26.0851 52.5393 24.8906 53.1481C20.9334 55.1651 17.4995 57.8435 13.9941 60.5017C13.1163 61.1674 12.2033 61.9277 11.3215 62.5992C10.9618 62.8738 9.87069 63.8457 9.57227 63.9795L9.5 63.9156C9.50815 63.8859 9.51613 63.8494 9.53079 63.8213C9.67027 63.5511 11.8679 61.4325 12.2172 61.0798C16.7534 56.4984 24.1156 49.4174 30.4848 47.6065C32.2337 47.1093 34.0645 46.7477 35.8889 46.7045C40.8427 46.5871 45.4976 48.7924 49.4807 51.4607C51.4095 52.7529 53.2429 54.1992 55.1914 55.4611C56.3775 56.2291 57.6053 56.9922 58.8824 57.6103C59.508 57.913 60.2711 58.1478 60.8557 58.4589V58.4591L61.2325 58.5775C63.0673 59.1453 64.1995 59.352 66.2337 59.5111C66.8796 59.5147 67.5442 59.5093 68.1874 59.5515L68.2334 59.5428C69.1261 59.382 69.921 59.4446 70.8773 59.2201C75.4035 58.1572 79.3015 55.6642 81.8944 51.8916C84.2465 48.493 85.3385 45.0386 85.9987 41.0436ZM42.6548 14.7141C43.8611 14.5366 45.1543 15.1746 45.7809 16.1966C46.1182 16.7467 46.3961 17.446 46.6636 18.0393L48.2133 21.5518L50.2046 26.0692C50.767 27.3218 51.3088 28.4374 51.8297 29.7303C52.0666 30.0554 52.7831 31.801 53.0095 32.2845C53.5028 33.3374 53.994 34.4464 54.471 35.5085C56.1367 39.207 57.8631 42.8797 59.6498 46.5249C60.9383 49.1823 62.3824 51.7663 63.9747 54.2644C64.4717 55.0482 64.9786 55.772 65.5369 56.5152C65.6994 56.7314 65.9442 57.0485 66.0723 57.2769L66.0317 57.3532C65.4747 57.3887 62.3573 56.3123 61.7294 56.088C54.5828 53.5342 51.8836 48.4518 48.9675 42.1645C47.3273 38.8028 45.8793 35.3577 44.1822 32.022C43.174 30.0404 41.8365 26.1396 39.442 28.546C39.4134 28.5921 39.3725 28.6338 39.3222 28.6702C39.1945 28.8078 39.0638 28.9631 38.9301 29.1374L38.9299 29.1372C35.5751 33.7679 32.6854 38.6954 29.5483 43.4597C29.4014 43.6829 29.0544 44.1462 28.8091 44.2318C28.3825 43.9379 30.3119 39.2786 30.5889 38.5463C32.179 34.3783 33.8349 30.2341 35.5562 26.1154L37.6328 21.0782C38.1744 19.7482 38.9042 17.5755 39.767 16.4304C40.4513 15.5038 41.4929 14.8849 42.6548 14.7141ZM18.0295 30.1307C22.5974 29.7243 26.6369 32.9935 27.0421 37.4248C27.4471 41.8561 24.0637 45.7636 19.4933 46.1429C14.9428 46.5205 10.935 43.2565 10.5317 38.8445C10.1284 34.4324 13.4815 30.5355 18.0295 30.1307Z" fill="white"/>
<path d="M80.4204 88.7549H73.1302L71.4989 93.5524H66.9616L74.0989 73.52H79.3753L86.64 93.5524H82.1028L80.4204 88.7549ZM74.4557 84.9015H79.0694L76.7243 78.2666L74.4557 84.9015Z" fill="white"/>
<path d="M66.0694 80.2826C66.0694 83.0386 64.6675 85.3098 62.0165 86.3816L66.4008 93.5524H61.4048L57.4028 87.0451H55.1342V93.5524H50.1636V78.9556H55.1342V83.1662H58.244C60.2832 83.1662 61.5322 82.0178 61.5322 80.2826C61.5322 78.5473 60.5126 77.552 58.244 77.552H48.6342V73.52H58.3459C63.6479 73.52 66.0694 76.3781 66.0694 80.2826Z" fill="white"/>
<path d="M37.9274 93.68C32.7784 93.68 29.7196 90.3625 29.7196 85.4374V73.52H34.6647V85.7181C34.6647 88.2955 35.9647 89.4694 37.9274 89.4694C39.8902 89.4694 41.1901 88.2955 41.1901 85.7181V73.52H46.1352V85.4374C46.1352 90.3625 43.0764 93.68 37.9274 93.68Z" fill="white"/>
<path d="M22.8188 88.7549H15.5286L13.8972 93.5524H9.35999L16.4972 73.52H21.7737L29.0383 93.5524H24.5011L22.8188 88.7549ZM16.8541 84.9015H21.4678L19.1227 78.2666L16.8541 84.9015Z" fill="white"/>
</svg>
