<svg width="17" height="17" viewBox="0 0 17 17" fill="none" xmlns="http://www.w3.org/2000/svg">
<path d="M8.33333 0C12.9358 0 16.6667 3.73083 16.6667 8.33333C16.6667 12.9358 12.9358 16.6667 8.33333 16.6667C3.73083 16.6667 0 12.9358 0 8.33333C0 3.73083 3.73083 0 8.33333 0ZM11.2792 5.3175L7.15417 9.4425L5.3875 7.675C5.31013 7.59757 5.21827 7.53615 5.11716 7.49422C5.01605 7.4523 4.90767 7.4307 4.79821 7.43066C4.57715 7.43059 4.36512 7.51833 4.20875 7.67458C4.05238 7.83084 3.96449 8.04281 3.96441 8.26387C3.96434 8.48493 4.05208 8.69697 4.20833 8.85333L6.50667 11.1517C6.59179 11.2368 6.69286 11.3044 6.80411 11.3505C6.91535 11.3966 7.03459 11.4203 7.155 11.4203C7.27541 11.4203 7.39465 11.3966 7.50589 11.3505C7.61714 11.3044 7.71821 11.2368 7.80333 11.1517L12.4583 6.49667C12.6147 6.3403 12.7025 6.12822 12.7025 5.90708C12.7025 5.68595 12.6147 5.47387 12.4583 5.3175C12.302 5.16113 12.0899 5.07329 11.8687 5.07329C11.6476 5.07329 11.4355 5.16113 11.2792 5.3175Z" fill="#6C5CE7"/>
</svg>
