<svg width="20" height="20" viewBox="0 0 20 20" fill="none" xmlns="http://www.w3.org/2000/svg">
<path d="M11.7606 11.204C11.9085 11.337 11.9974 11.5233 12.0079 11.7219C12.0184 11.9205 11.9496 12.1151 11.8166 12.263L10.7056 13.499H12.9816C13.1229 13.4988 13.2614 13.5386 13.3811 13.6136C13.5008 13.6887 13.5969 13.7961 13.6582 13.9234C13.7195 14.0507 13.7437 14.1927 13.7278 14.3331C13.712 14.4735 13.6568 14.6066 13.5686 14.717L10.3566 18.748C10.2308 18.8974 10.0516 18.9918 9.85727 19.0111C9.6629 19.0305 9.46866 18.9732 9.31586 18.8515C9.16305 18.7299 9.06374 18.5534 9.03905 18.3596C9.01436 18.1659 9.06623 17.9701 9.18364 17.814L11.4256 14.999H9.02264C8.87775 14.999 8.73597 14.957 8.61444 14.8781C8.49291 14.7992 8.39683 14.6868 8.33781 14.5545C8.27879 14.4222 8.25935 14.2756 8.28186 14.1325C8.30437 13.9894 8.36785 13.8558 8.46464 13.748L10.7006 11.26C10.7665 11.1867 10.8462 11.127 10.9352 11.0845C11.0241 11.042 11.1206 11.0174 11.219 11.0122C11.3175 11.007 11.416 11.0213 11.5089 11.0542C11.6019 11.0871 11.6874 11.138 11.7606 11.204ZM11.0026 3.009C14.1706 3.009 15.9686 5.106 16.2296 7.639H16.3096C16.7939 7.63834 17.2736 7.73309 17.7212 7.91784C18.1688 8.10258 18.5757 8.3737 18.9186 8.71571C19.2614 9.05773 19.5335 9.46393 19.7194 9.91112C19.9052 10.3583 20.0011 10.8377 20.0016 11.322C20.001 11.8062 19.905 12.2855 19.7191 12.7326C19.5332 13.1797 19.261 13.5857 18.9182 13.9276C18.5754 14.2695 18.1685 14.5406 17.721 14.7253C17.2734 14.9099 16.7938 15.0047 16.3096 15.004H14.5626C15.1056 13.891 14.3106 12.499 12.9826 12.499H12.8466C13.0242 12.1186 13.0591 11.687 12.9449 11.2829C12.8308 10.8789 12.5751 10.5294 12.2247 10.2982C11.8743 10.0669 11.4524 9.96937 11.036 10.0233C10.6197 10.0773 10.2366 10.2791 9.95664 10.592L7.72164 13.079C7.48763 13.3352 7.33609 13.6559 7.28669 13.9994C7.23729 14.3428 7.29233 14.6932 7.44464 15.005H5.69464C5.21037 15.0057 4.73071 14.9109 4.28307 14.7262C3.83543 14.5414 3.42856 14.2703 3.08571 13.9283C2.74287 13.5863 2.47075 13.1801 2.28492 12.7329C2.09908 12.2857 2.00316 11.8063 2.00264 11.322C2.00316 10.8377 2.09908 10.3583 2.28492 9.91112C2.47075 9.46393 2.74287 9.05773 3.08571 8.71571C3.42856 8.3737 3.83543 8.10258 4.28307 7.91784C4.73071 7.73309 5.21037 7.63834 5.69464 7.639H5.77464C6.03764 5.089 7.83464 3.009 11.0026 3.009ZM8.00064 0C9.61764 0 11.0506 0.815 11.9006 2.062C11.6025 2.0275 11.3027 2.00981 11.0026 2.009C8.00864 2.009 5.83164 3.686 5.06564 6.222L4.99764 6.462L4.93964 6.7L4.73364 6.739C3.94519 6.90656 3.21338 7.27493 2.60912 7.80841C2.00486 8.34189 1.54863 9.0224 1.28464 9.784C0.753004 9.37626 0.358898 8.81557 0.155264 8.17728C-0.0483706 7.53899 -0.0517768 6.85366 0.145503 6.21337C0.342782 5.57309 0.731296 5.00851 1.25885 4.59551C1.7864 4.1825 2.42772 3.94084 3.09664 3.903L3.35364 3.897C3.547 2.80501 4.11869 1.81598 4.96842 1.10339C5.81815 0.390801 6.89166 0.000163349 8.00064 0Z" fill="#C0B9F5"/>
</svg>
