<svg width="18" height="16" viewBox="0 0 18 16" fill="none" xmlns="http://www.w3.org/2000/svg">
<path d="M6.75 14.152C6.94891 14.152 7.13968 14.231 7.28033 14.3717C7.42098 14.5123 7.5 14.7031 7.5 14.902C7.5 15.1009 7.42098 15.2917 7.28033 15.4323C7.13968 15.573 6.94891 15.652 6.75 15.652C6.55109 15.652 6.36032 15.573 6.21967 15.4323C6.07902 15.2917 6 15.1009 6 14.902C6 14.7031 6.07902 14.5123 6.21967 14.3717C6.36032 14.231 6.55109 14.152 6.75 14.152ZM11.25 14.152C11.4489 14.152 11.6397 14.231 11.7803 14.3717C11.921 14.5123 12 14.7031 12 14.902C12 15.1009 11.921 15.2917 11.7803 15.4323C11.6397 15.573 11.4489 15.652 11.25 15.652C11.0511 15.652 10.8603 15.573 10.7197 15.4323C10.579 15.2917 10.5 15.1009 10.5 14.902C10.5 14.7031 10.579 14.5123 10.7197 14.3717C10.8603 14.231 11.0511 14.152 11.25 14.152ZM4.5 13.152C4.69891 13.152 4.88968 13.231 5.03033 13.3717C5.17098 13.5123 5.25 13.7031 5.25 13.902C5.25 14.1009 5.17098 14.2917 5.03033 14.4323C4.88968 14.573 4.69891 14.652 4.5 14.652C4.30109 14.652 4.11032 14.573 3.96967 14.4323C3.82902 14.2917 3.75 14.1009 3.75 13.902C3.75 13.7031 3.82902 13.5123 3.96967 13.3717C4.11032 13.231 4.30109 13.152 4.5 13.152ZM9 13.152C9.19891 13.152 9.38968 13.231 9.53033 13.3717C9.67098 13.5123 9.75 13.7031 9.75 13.902C9.75 14.1009 9.67098 14.2917 9.53033 14.4323C9.38968 14.573 9.19891 14.652 9 14.652C8.80109 14.652 8.61032 14.573 8.46967 14.4323C8.32902 14.2917 8.25 14.1009 8.25 13.902C8.25 13.7031 8.32902 13.5123 8.46967 13.3717C8.61032 13.231 8.80109 13.152 9 13.152ZM13.5 13.152C13.6989 13.152 13.8897 13.231 14.0303 13.3717C14.171 13.5123 14.25 13.7031 14.25 13.902C14.25 14.1009 14.171 14.2917 14.0303 14.4323C13.8897 14.573 13.6989 14.652 13.5 14.652C13.3011 14.652 13.1103 14.573 12.9697 14.4323C12.829 14.2917 12.75 14.1009 12.75 13.902C12.75 13.7031 12.829 13.5123 12.9697 13.3717C13.1103 13.231 13.3011 13.152 13.5 13.152ZM9 0C12.169 0 13.966 2.097 14.227 4.63H14.307C14.7914 4.62921 15.2713 4.7239 15.7191 4.90865C16.1669 5.09339 16.574 5.36458 16.9169 5.70671C17.2599 6.04884 17.5321 6.45521 17.7179 6.90258C17.9037 7.34995 17.9996 7.82956 18 8.314C17.9993 8.79818 17.9033 9.2775 17.7174 9.72457C17.5315 10.1717 17.2594 10.5777 16.9166 10.9196C16.5737 11.2615 16.1669 11.5326 15.7193 11.7173C15.2718 11.9019 14.7922 11.9967 14.308 11.996H3.693C3.20873 11.9968 2.72905 11.9022 2.28136 11.7175C1.83366 11.5329 1.42673 11.2619 1.08379 10.92C0.740846 10.5781 0.468622 10.1719 0.282664 9.7248C0.0967062 9.27766 0.000656082 8.79827 0 8.314C0.00039353 7.82956 0.0962498 7.34995 0.28209 6.90258C0.467931 6.45521 0.740113 6.04884 1.08308 5.70671C1.42604 5.36458 1.83307 5.09339 2.2809 4.90865C2.72872 4.7239 3.20856 4.62921 3.693 4.63H3.773C4.035 2.08 5.831 0 9 0Z" fill="white"/>
</svg>
