<svg width="90" height="94" viewBox="0 0 90 94" fill="none" xmlns="http://www.w3.org/2000/svg">
<path d="M85.7129 37.4037C85.975 38.3049 86.2194 39.2551 86.2434 40.1979C86.5197 50.9172 78.0152 60.743 67.0452 62.2258C66.2804 62.3293 61.9884 62.4186 61.4143 62.1416C60.6184 62.1302 58.723 61.6592 57.9359 61.3975C57.0608 61.2045 56.0929 60.8666 55.1144 60.4461C54.9365 60.3697 54.7581 60.2906 54.5799 60.2091C54.2237 60.046 53.8681 59.8735 53.5169 59.6947C53.1658 59.5159 52.8192 59.3305 52.481 59.1419C51.551 58.6233 50.6849 58.0791 49.9649 57.572C49.2579 57.0737 48.5813 56.6776 47.9071 56.1182C47.6784 56.0195 45.6118 54.3683 45.2206 54.0806C42.2189 51.8735 39.3229 49.7107 35.7429 48.4271C31.7949 47.0116 27.6798 47.3165 23.7636 48.6815C22.3399 49.1778 21.5198 49.7205 20.2399 50.3728C16.0001 52.5338 12.3209 55.4035 8.56509 58.2516C7.62455 58.9649 6.64641 59.7795 5.70165 60.499C5.31621 60.7931 4.14717 61.8345 3.82743 61.9779L3.75 61.9094C3.75873 61.8776 3.76729 61.8385 3.78299 61.8083C3.93243 61.5188 6.28706 59.2489 6.66132 58.8711C11.5215 53.9624 19.4096 46.3756 26.2337 44.4354C28.1075 43.9026 30.0691 43.5152 32.0238 43.4689C37.3314 43.3431 42.3188 45.706 46.5864 48.5649C48.653 49.9494 50.6174 51.499 52.705 52.851C53.9759 53.6739 55.2914 54.4914 56.6597 55.1537C57.33 55.478 58.1476 55.7296 58.774 56.0629V56.0631L59.1776 56.19C61.1436 56.7983 62.3566 57.0198 64.5361 57.1903C65.2282 57.1941 65.9402 57.1883 66.6294 57.2336L66.6786 57.2243C67.6351 57.0519 68.4868 57.1191 69.5114 56.8785C74.3609 55.7397 78.5373 53.0686 81.3154 49.0266C83.8355 45.3852 85.0056 41.684 85.7129 37.4037ZM39.273 9.19356C40.5655 9.0033 41.951 9.68689 42.6224 10.7819C42.9838 11.3713 43.2815 12.1206 43.5681 12.7563L45.2286 16.5196L47.3621 21.3596C47.9646 22.7018 48.5451 23.897 49.1032 25.2823C49.357 25.6306 50.1247 27.5009 50.3674 28.0189C50.8959 29.147 51.4221 30.3352 51.9332 31.4732C53.7179 35.4359 55.5676 39.3709 57.4819 43.2765C58.8624 46.1238 60.4097 48.8923 62.1158 51.5688C62.6483 52.4086 63.1913 53.1841 63.7895 53.9804C63.9637 54.2121 64.2259 54.5518 64.3632 54.7965L64.3196 54.8782C63.7229 54.9163 60.3828 53.763 59.71 53.5227C52.053 50.7865 49.161 45.341 46.0366 38.6046C44.2792 35.0028 42.7278 31.3117 40.9095 27.7376C39.8293 25.6145 38.3962 21.4351 35.8307 24.0134C35.8001 24.0628 35.7563 24.1074 35.7024 24.1465C35.5656 24.2939 35.4255 24.4603 35.2822 24.6471L35.282 24.6469C31.6876 29.6083 28.5915 34.8877 25.2303 39.9924C25.0729 40.2315 24.7012 40.7279 24.4383 40.8196C23.9813 40.5048 26.0484 35.5126 26.3453 34.728C28.0489 30.2622 29.8231 25.8221 31.6674 21.4092L33.8923 16.0121C34.4726 14.5872 35.2545 12.2593 36.1789 11.0323C36.9121 10.0396 38.0281 9.37648 39.273 9.19356ZM12.8888 25.7113C17.7829 25.2758 22.111 28.7786 22.5451 33.5264C22.9791 38.2742 19.354 42.4609 14.4572 42.8672C9.5816 43.2717 5.28754 39.7747 4.85538 35.0475C4.42326 30.3203 8.01593 26.145 12.8888 25.7113Z" fill="#6C5CE7"/>
<path d="M79.7362 88.523H71.9253L70.1774 93.6632H65.316L72.9631 72.2H78.6164L86.4 93.6632H81.5387L79.7362 88.523ZM73.3454 84.3944H78.2887L75.7761 77.2855L73.3454 84.3944Z" fill="#6C5CE7"/>
<path d="M64.3602 79.4455C64.3602 82.3984 62.8581 84.8318 60.0177 85.9802L64.7152 93.6632H59.3623L55.0745 86.6911H52.6438V93.6632H47.3182V78.0237H52.6438V82.5351H55.9757C58.1606 82.5351 59.4988 81.3048 59.4988 79.4455C59.4988 77.5863 58.4064 76.52 55.9757 76.52H45.6796V72.2H56.085C61.7656 72.2 64.3602 75.2622 64.3602 79.4455Z" fill="#6C5CE7"/>
<path d="M34.2079 93.7999C28.6911 93.7999 25.4138 90.2455 25.4138 84.9686V72.2H30.7121V85.2693C30.7121 88.0308 32.105 89.2886 34.2079 89.2886C36.3108 89.2886 37.7037 88.0308 37.7037 85.2693V72.2H43.002V84.9686C43.002 90.2455 39.7247 93.7999 34.2079 93.7999Z" fill="#6C5CE7"/>
<path d="M18.0201 88.523H10.2092L8.4613 93.6632H3.59998L11.247 72.2H16.9003L24.6839 93.6632H19.8226L18.0201 88.523ZM11.6294 84.3944H16.5726L14.06 77.2855L11.6294 84.3944Z" fill="#6C5CE7"/>
</svg>
