<svg width="67" height="18" viewBox="0 0 67 18" fill="none" xmlns="http://www.w3.org/2000/svg">
<path d="M61.3308 13.134H55.0388L53.6308 17.27H49.7148L55.8748 0H60.4288L66.6988 17.27H62.7828L61.3308 13.134ZM56.1828 9.812H60.1648L58.1408 4.092L56.1828 9.812Z" fill="#6C5CE7"/>
<path d="M48.9449 5.83C48.9449 8.206 47.7348 10.164 45.4468 11.088L49.2309 17.27H44.9188L41.4649 11.66H39.5069V17.27H35.2169V4.686H39.5069V8.316H42.1909C43.9509 8.316 45.0289 7.326 45.0289 5.83C45.0289 4.334 44.1489 3.476 42.1909 3.476H33.8969V0H42.2789C46.8549 0 48.9449 2.464 48.9449 5.83Z" fill="#6C5CE7"/>
<path d="M24.656 17.38C20.212 17.38 17.572 14.52 17.572 10.274V0H21.84V10.516C21.84 12.738 22.962 13.75 24.656 13.75C26.35 13.75 27.472 12.738 27.472 10.516V0H31.74V10.274C31.74 14.52 29.1 17.38 24.656 17.38Z" fill="#6C5CE7"/>
<path d="M11.616 13.134H5.324L3.916 17.27H0L6.16 0H10.714L16.984 17.27H13.068L11.616 13.134ZM6.468 9.812H10.45L8.426 4.092L6.468 9.812Z" fill="#6C5CE7"/>
</svg>
