<svg width="16" height="16" viewBox="0 0 16 16" fill="none" xmlns="http://www.w3.org/2000/svg">
<path d="M7.11816 3.25977C7.644 2.87756 8.356 2.87756 8.88184 3.25977L12.3818 5.80566C12.77 6.08793 13 6.53865 13 7.01855V13C13 13.2761 12.7761 13.5 12.5 13.5H10.5C10.2239 13.5 10 13.2761 10 13V9.33301C9.99982 9.05702 9.77603 8.83301 9.5 8.83301H6.5C6.22397 8.83301 6.00018 9.05702 6 9.33301V13C6 13.2761 5.77614 13.5 5.5 13.5H3.5C3.22386 13.5 3 13.2761 3 13V7.01855C3 6.53865 3.23005 6.08793 3.61816 5.80566L7.11816 3.25977Z" stroke="#121111" stroke-linejoin="round"/>
</svg>
