<svg width="14" height="14" viewBox="0 0 14 14" fill="none" xmlns="http://www.w3.org/2000/svg">
<path fill-rule="evenodd" clip-rule="evenodd" d="M1.38139 0.840841C1.09017 0.840841 0.840844 1.09017 0.840844 1.38138V11.952C0.840844 12.2432 1.09018 12.4925 1.38139 12.4925H8.10813C8.39934 12.4925 8.64868 12.2432 8.64868 11.952V10.03C8.64868 9.79784 8.83691 9.60961 9.0691 9.60961C9.30129 9.60961 9.48952 9.79784 9.48952 10.03V11.952C9.48952 12.7075 8.86373 13.3333 8.10813 13.3333H1.38139C0.625792 13.3333 0 12.7075 0 11.952V1.38138C0 0.625786 0.625788 0 1.38139 0H8.10813C8.86373 0 9.48952 0.625784 9.48952 1.38138V3.3033C9.48952 3.5355 9.30129 3.72372 9.0691 3.72372C8.83691 3.72372 8.64868 3.5355 8.64868 3.3033V1.38138C8.64868 1.09017 8.39935 0.840841 8.10813 0.840841H1.38139ZM7.44445 4.44726C7.60861 4.61147 7.60858 4.87766 7.44437 5.04183L6.24036 6.24554H12.9129C13.1451 6.24554 13.3333 6.43377 13.3333 6.66596C13.3333 6.89816 13.1451 7.08638 12.9129 7.08638H6.24001L7.44445 8.29111C7.60861 8.45531 7.60858 8.72151 7.44437 8.88567C7.28017 9.04984 7.01397 9.0498 6.84981 8.8856L4.92788 6.96321C4.84904 6.88436 4.80476 6.77741 4.80478 6.66591C4.80479 6.55441 4.8491 6.44748 4.92795 6.36864L6.84988 4.44719C7.01408 4.28303 7.28028 4.28306 7.44445 4.44726Z" fill="#121111"/>
</svg>
