<svg width="24" height="24" viewBox="0 0 24 24" fill="none" xmlns="http://www.w3.org/2000/svg">
<path fill-rule="evenodd" clip-rule="evenodd" d="M19 7.5H5C4.72386 7.5 4.5 7.72386 4.5 8V16C4.5 16.2761 4.72386 16.5 5 16.5H19C19.2761 16.5 19.5 16.2761 19.5 16V8C19.5 7.72386 19.2761 7.5 19 7.5ZM5 6C3.89543 6 3 6.89543 3 8V16C3 17.1046 3.89543 18 5 18H19C20.1046 18 21 17.1046 21 16V8C21 6.89543 20.1046 6 19 6H5Z" fill="#121111"/>
<path fill-rule="evenodd" clip-rule="evenodd" d="M3.8952 7.05648C4.14015 6.72245 4.6095 6.65025 4.94352 6.8952L11.2608 11.5279C11.7008 11.8505 12.2992 11.8505 12.7392 11.5279L19.0565 6.8952C19.3905 6.65025 19.8599 6.72245 20.1048 7.05648C20.3498 7.3905 20.2775 7.85985 19.9435 8.1048L13.6263 12.7375C12.6583 13.4473 11.3417 13.4473 10.3737 12.7375L4.05648 8.1048C3.72245 7.85985 3.65025 7.3905 3.8952 7.05648Z" fill="#121111"/>
</svg>
