<svg width="24" height="24" viewBox="0 0 24 24" fill="none" xmlns="http://www.w3.org/2000/svg">
<path d="M22 4.22629C22 4.76076 21.5667 5.19403 21.0323 5.19403L2.96774 5.19403C2.43327 5.19403 2 4.76076 2 4.22629C2 3.69182 2.43327 3.25854 2.96774 3.25854L21.0323 3.25855C21.5667 3.25855 22 3.69182 22 4.22629Z" fill="#121111"/>
<path d="M22 11.968C22 12.5025 21.5667 12.9357 21.0323 12.9357L2.96774 12.9357C2.43327 12.9357 2 12.5025 2 11.968C2 11.4335 2.43327 11.0002 2.96774 11.0002L21.0323 11.0002C21.5667 11.0002 22 11.4335 22 11.968Z" fill="#121111"/>
<path d="M21.0323 20.6774C21.5667 20.6774 22 20.2442 22 19.7097C22 19.1752 21.5667 18.7419 21.0323 18.7419L2.96774 18.7419C2.43327 18.7419 2 19.1752 2 19.7097C2 20.2442 2.43327 20.6774 2.96774 20.6774L21.0323 20.6774Z" fill="#121111"/>
</svg>
