<svg width="24" height="24" viewBox="0 0 24 24" fill="none" xmlns="http://www.w3.org/2000/svg">
<mask id="path-1-inside-1_1_287" fill="white">
<path fill-rule="evenodd" clip-rule="evenodd" d="M17 3.5H7C6.72386 3.5 6.5 3.72386 6.5 4V16H17.5V4C17.5 3.72386 17.2761 3.5 17 3.5ZM7 2C5.89543 2 5 2.89543 5 4V17.5H19V4C19 2.89543 18.1046 2 17 2H7Z"/>
<path fill-rule="evenodd" clip-rule="evenodd" d="M17.5 17.5H6.5V20C6.5 20.2761 6.72386 20.5 7 20.5H17C17.2761 20.5 17.5 20.2761 17.5 20V17.5ZM5 16V20C5 21.1046 5.89543 22 7 22H17C18.1046 22 19 21.1046 19 20V16H5Z"/>
<path d="M13 19C13 19.5523 12.5523 20 12 20C11.4477 20 11 19.5523 11 19C11 18.4477 11.4477 18 12 18C12.5523 18 13 18.4477 13 19Z"/>
</mask>
<path fill-rule="evenodd" clip-rule="evenodd" d="M17 3.5H7C6.72386 3.5 6.5 3.72386 6.5 4V16H17.5V4C17.5 3.72386 17.2761 3.5 17 3.5ZM7 2C5.89543 2 5 2.89543 5 4V17.5H19V4C19 2.89543 18.1046 2 17 2H7Z" fill="#121111"/>
<path fill-rule="evenodd" clip-rule="evenodd" d="M17.5 17.5H6.5V20C6.5 20.2761 6.72386 20.5 7 20.5H17C17.2761 20.5 17.5 20.2761 17.5 20V17.5ZM5 16V20C5 21.1046 5.89543 22 7 22H17C18.1046 22 19 21.1046 19 20V16H5Z" fill="#121111"/>
<path d="M13 19C13 19.5523 12.5523 20 12 20C11.4477 20 11 19.5523 11 19C11 18.4477 11.4477 18 12 18C12.5523 18 13 18.4477 13 19Z" fill="#121111"/>
<path d="M6.5 16H5.5C5.5 16.5523 5.94772 17 6.5 17V16ZM17.5 16V17C18.0523 17 18.5 16.5523 18.5 16H17.5ZM5 17.5H4C4 18.0523 4.44772 18.5 5 18.5V17.5ZM19 17.5V18.5C19.5523 18.5 20 18.0523 20 17.5H19ZM6.5 17.5V16.5C5.94772 16.5 5.5 16.9477 5.5 17.5H6.5ZM17.5 17.5H18.5C18.5 16.9477 18.0523 16.5 17.5 16.5V17.5ZM5 16V15C4.44772 15 4 15.4477 4 16H5ZM19 16H20C20 15.4477 19.5523 15 19 15V16ZM7 3.5V4.5H17V3.5V2.5H7V3.5ZM6.5 4H7.5C7.5 4.27614 7.27614 4.5 7 4.5V3.5V2.5C6.17157 2.5 5.5 3.17157 5.5 4H6.5ZM6.5 16H7.5V4H6.5H5.5V16H6.5ZM17.5 16V15H6.5V16V17H17.5V16ZM17.5 4H16.5V16H17.5H18.5V4H17.5ZM17 3.5V4.5C16.7239 4.5 16.5 4.27614 16.5 4H17.5H18.5C18.5 3.17157 17.8284 2.5 17 2.5V3.5ZM5 4H6C6 3.44772 6.44772 3 7 3V2V1C5.34315 1 4 2.34315 4 4H5ZM17 2V3C17.5523 3 18 3.44772 18 4H19H20C20 2.34315 18.6569 1 17 1V2ZM7 2V3H17V2V1H7V2ZM5 17.5H6V4H5H4V17.5H5ZM19 17.5V16.5H5V17.5V18.5H19V17.5ZM19 4H18V17.5H19H20V4H19ZM6.5 17.5V18.5H17.5V17.5V16.5H6.5V17.5ZM6.5 20H7.5V17.5H6.5H5.5V20H6.5ZM7 20.5V19.5C7.27614 19.5 7.5 19.7239 7.5 20H6.5H5.5C5.5 20.8284 6.17157 21.5 7 21.5V20.5ZM17 20.5V19.5H7V20.5V21.5H17V20.5ZM17.5 20H16.5C16.5 19.7239 16.7239 19.5 17 19.5V20.5V21.5C17.8284 21.5 18.5 20.8284 18.5 20H17.5ZM17.5 17.5H16.5V20H17.5H18.5V17.5H17.5ZM7 22V21C6.44772 21 6 20.5523 6 20H5H4C4 21.6569 5.34315 23 7 23V22ZM17 22V21H7V22V23H17V22ZM19 20H18C18 20.5523 17.5523 21 17 21V22V23C18.6569 23 20 21.6569 20 20H19ZM5 16V17H19V16V15H5V16ZM5 20H6V16H5H4V20H5ZM19 16H18V20H19H20V16H19ZM13 19H12V20V21C13.1046 21 14 20.1046 14 19H13ZM12 20V19H11H10C10 20.1046 10.8954 21 12 21V20ZM11 19H12V18V17C10.8954 17 10 17.8954 10 19H11ZM12 18V19H13H14C14 17.8954 13.1046 17 12 17V18Z" fill="#121111" mask="url(#path-1-inside-1_1_287)"/>
</svg>
