<svg width="48" height="48" viewBox="0 0 48 48" fill="none" xmlns="http://www.w3.org/2000/svg">
<path d="M24.0547 0H23.9453C10.7207 0 0 10.7207 0 23.9453V24.0547C0 37.2793 10.7207 48 23.9453 48H24.0547C37.2793 48 48 37.2793 48 24.0547V23.9453C48 10.7207 37.2793 0 24.0547 0Z" fill="url(#paint0_linear_2094_495)"/>
<path d="M31.4271 9.76568H16.5746C12.4713 9.76568 9.13318 13.1038 9.13318 17.2071V30.795C9.13318 34.8983 12.4713 38.2364 16.5746 38.2364H31.4271C35.5304 38.2364 38.8685 34.8983 38.8685 30.795V17.2071C38.8685 13.1038 35.5304 9.76568 31.4271 9.76568ZM11.7583 17.2071C11.7583 14.5517 13.9192 12.3908 16.5746 12.3908H31.4271C34.0825 12.3908 36.2434 14.5517 36.2434 17.2071V30.795C36.2434 33.4504 34.0825 35.6113 31.4271 35.6113H16.5746C13.9192 35.6113 11.7583 33.4504 11.7583 30.795V17.2071Z" fill="white"/>
<path d="M24.0009 30.9211C27.8166 30.9211 30.9226 27.8167 30.9226 23.9993C30.9226 20.1819 27.8183 17.0775 24.0009 17.0775C20.1835 17.0775 17.0791 20.1819 17.0791 23.9993C17.0791 27.8167 20.1835 30.9211 24.0009 30.9211ZM24.0009 19.7043C26.3704 19.7043 28.2975 21.6315 28.2975 24.001C28.2975 26.3705 26.3704 28.2977 24.0009 28.2977C21.6314 28.2977 19.7042 26.3705 19.7042 24.001C19.7042 21.6315 21.6314 19.7043 24.0009 19.7043Z" fill="white"/>
<path d="M31.5634 18.1971C32.5909 18.1971 33.4284 17.361 33.4284 16.3315C33.4284 15.302 32.5926 14.466 31.5634 14.466C30.5342 14.466 29.6984 15.302 29.6984 16.3315C29.6984 17.361 30.5342 18.1971 31.5634 18.1971Z" fill="white"/>
<defs>
<linearGradient id="paint0_linear_2094_495" x1="7.01258" y1="40.9874" x2="40.9874" y2="7.01426" gradientUnits="userSpaceOnUse">
<stop stop-color="#FAAD4F"/>
<stop offset="0.35" stop-color="#DD2A7B"/>
<stop offset="0.62" stop-color="#9537B0"/>
<stop offset="1" stop-color="#515BD4"/>
</linearGradient>
</defs>
</svg>
