<svg width="48" height="48" viewBox="0 0 48 48" fill="none" xmlns="http://www.w3.org/2000/svg">
<path d="M48 24.0008C48 36.1223 39.0148 46.1434 27.3423 47.7696C26.2509 47.921 25.1343 48 24.0008 48C22.6925 48 21.4077 47.8957 20.1565 47.6939C8.72789 45.8542 0 35.9458 0 24.0008C0 10.7459 10.7459 0 23.9992 0C37.2524 0 48 10.7459 48 24.0008Z" fill="#1877F2"/>
<path d="M27.3421 19.271V24.4993H33.8098L32.7857 31.5421H27.3421L27.3423 47.7696C26.2509 47.921 25.1343 48 24.0008 48C22.6925 48 21.4077 47.8957 20.1565 47.6939L20.1563 31.5421H14.1914V24.4993H20.1563V18.1022C20.1563 14.1335 23.3733 10.9147 27.3438 10.9147V10.9181C27.3555 10.9181 27.3656 10.9147 27.3774 10.9147H33.8115V17.0058H29.6073C28.3578 17.0058 27.3438 18.0198 27.3438 19.2693L27.3421 19.271Z" fill="white"/>
</svg>
