<svg width="48" height="48" viewBox="0 0 48 48" fill="none" xmlns="http://www.w3.org/2000/svg">
<path d="M23.999 47.9979C37.2532 47.9979 47.9979 37.2532 47.9979 23.999C47.9979 10.7447 37.2532 0 23.999 0C10.7447 0 0 10.7447 0 23.999C0 37.2532 10.7447 47.9979 23.999 47.9979Z" fill="#36B44A"/>
<path d="M11.8389 11.2463C8.73669 11.2463 6.22717 13.7724 6.22717 16.8829V30.2511C6.22717 33.3595 8.73669 35.8835 11.8389 35.8835H20.2171L23.0768 40.5358C23.0768 40.5358 23.1058 40.5938 23.168 40.6705C23.3358 40.9585 23.6446 41.1533 24.001 41.1533C24.3575 41.1533 24.66 40.9585 24.8279 40.6767C24.9004 40.5938 24.9253 40.5358 24.9253 40.5358L27.7809 35.8835H36.159C39.2592 35.8835 41.777 33.3616 41.777 30.2511V16.8829C41.777 13.7724 39.2612 11.2463 36.159 11.2463" fill="white"/>
<path d="M14.1205 21.0419C14.1205 21.0419 13.1486 21.0419 12.2658 21.904V18.4495H10.094V27.5136H12.2906V26.8029C12.2906 26.8029 12.8087 27.7416 14.1205 27.7416C14.1205 27.7416 17.1853 27.6255 17.1853 24.3514C17.1853 24.3514 17.0734 21.0399 14.1205 21.0399M13.6397 25.8247C12.8667 25.8247 12.243 25.201 12.243 24.4301C12.243 23.6592 12.8667 23.0313 13.6397 23.0313C14.4126 23.0313 15.0385 23.6551 15.0385 24.4301C15.0385 25.2051 14.4126 25.8247 13.6397 25.8247Z" fill="#F47626"/>
<path d="M17.8878 18.2423V20.3436C17.8878 20.3436 18.8784 20.298 18.8784 22.1506V27.5157H20.9776V21.6533C20.9776 21.6533 21.0688 18.2423 17.8878 18.2423Z" fill="#F47626"/>
<path d="M26.1065 21.073C26.1065 21.073 22.509 21.073 22.509 24.428C22.509 24.428 22.395 27.7416 26.1065 27.7416C26.1065 27.7416 29.7847 27.7354 29.7847 24.428C29.7847 24.428 29.907 21.073 26.1065 21.073ZM26.1065 25.8247C25.3314 25.8247 24.7077 25.201 24.7077 24.4301C24.7077 23.6592 25.3314 23.0313 26.1065 23.0313C26.8815 23.0313 27.5032 23.6551 27.5032 24.4301C27.5032 25.2051 26.8773 25.8247 26.1065 25.8247Z" fill="#F47626"/>
<path d="M35.7881 21.2844V21.9019C35.7881 21.9019 35.1623 21.073 33.9604 21.073C33.9604 21.073 30.883 20.9404 30.883 24.4052C30.883 24.4052 30.8499 27.6359 33.8754 27.6359C33.8754 27.6359 35.1105 27.6836 35.7881 26.8049V27.3126C35.7881 27.3126 35.9415 28.9041 34.4018 28.9041H33.8754V30.8313H34.723C34.723 30.8313 37.9039 30.8666 37.9039 27.4328V21.2865H35.7881V21.2844ZM34.4888 25.8247C33.7179 25.8247 33.09 25.201 33.09 24.4301C33.09 23.6592 33.7179 23.0313 34.4888 23.0313C35.2597 23.0313 35.8855 23.6551 35.8855 24.4301C35.8855 25.2051 35.2617 25.8247 34.4888 25.8247Z" fill="#F47626"/>
</svg>
