<svg width="20" height="15" viewBox="0 0 20 15" fill="none" xmlns="http://www.w3.org/2000/svg">
<path fill-rule="evenodd" clip-rule="evenodd" d="M3.53027 0.21967C3.82317 -0.0732233 4.29793 -0.0732233 4.59082 0.21967L6.68164 2.31049C7.68454 1.96388 8.79235 1.74994 10 1.74994C16.4 1.74994 20 7.74994 20 7.74994C19.992 7.76702 18.8774 10.136 16.2627 11.8915L17.5303 13.1591C17.8231 13.452 17.8231 13.9268 17.5303 14.2197C17.2374 14.5125 16.7626 14.5125 16.4697 14.2197L3.53027 1.28022C3.23738 0.987324 3.23738 0.512563 3.53027 0.21967ZM5.03223 4.78217C4.50502 5.12247 4.02405 5.49441 3.59277 5.87494C2.82808 6.54968 2.24071 7.22674 1.84668 7.73334C1.82289 7.76393 1.79966 7.79396 1.77734 7.82319C1.78425 7.83364 1.79077 7.84479 1.79785 7.85541C2.12322 8.34345 2.62686 8.9996 3.32617 9.65522C4.7122 10.9546 6.86069 12.2499 10 12.2499C10.8184 12.2499 11.569 12.1599 12.2568 12.0068L13.4805 13.2304C12.4574 13.5514 11.3009 13.7499 10 13.7499C2.81637 13.7499 0.0127121 7.7771 0 7.74994C0 7.74994 1.37987 5.45102 3.94922 3.69916L5.03223 4.78217ZM10 3.24994C9.25364 3.24994 8.54947 3.34876 7.8877 3.51654L15.1777 10.8066C15.7519 10.4473 16.2495 10.053 16.6738 9.65522C17.3731 8.9996 17.8768 8.34345 18.2021 7.85541C18.2092 7.84479 18.2157 7.83364 18.2227 7.82319C18.2003 7.79396 18.1771 7.76393 18.1533 7.73334C17.7593 7.22674 17.1719 6.54968 16.4072 5.87494C14.8679 4.51676 12.7073 3.24994 10 3.24994Z" fill="#121111"/>
</svg>
