<svg width="20" height="12" viewBox="0 0 20 12" fill="none" xmlns="http://www.w3.org/2000/svg">
<path d="M10 0.75C12.9535 0.75 15.2837 2.13346 16.9033 3.5625C17.7107 4.2749 18.3293 4.98888 18.7451 5.52344C18.9016 5.7246 19.0279 5.90008 19.125 6.03906C19.0483 6.1709 18.9503 6.33522 18.8262 6.52148C18.476 7.04674 17.9371 7.75032 17.1875 8.45312C15.6945 9.85283 13.3697 11.25 10 11.25C6.63032 11.25 4.30552 9.85283 2.8125 8.45312C2.06286 7.75032 1.524 7.04674 1.17383 6.52148C1.04952 6.33502 0.950782 6.17098 0.874023 6.03906C0.971127 5.90001 1.09826 5.72482 1.25488 5.52344C1.67065 4.98888 2.2893 4.2749 3.09668 3.5625C4.71632 2.13346 7.04645 0.75 10 0.75Z" stroke="#121111" stroke-width="1.5"/>
<circle cx="10" cy="6" r="4" fill="#121111"/>
</svg>
