<svg width="24" height="24" viewBox="0 0 24 24" fill="none" xmlns="http://www.w3.org/2000/svg">
<path fill-rule="evenodd" clip-rule="evenodd" d="M12 4.53119L3.44634 19.5001H20.5536L12 4.53119ZM12.8682 2.01949C12.4843 1.34767 11.5156 1.34767 11.1317 2.01949L0.854914 20.0039C0.473968 20.6706 0.955334 21.5001 1.72316 21.5001H22.2768C23.0446 21.5001 23.526 20.6706 23.145 20.0039L12.8682 2.01949Z" fill="#FF4747"/>
<path d="M12.9016 9.00006L12.7619 14.8981H11.2256L11.086 9.00006H12.9016ZM12.0015 18.2501C11.3963 18.2501 10.8842 17.7535 10.8997 17.1483C10.8842 16.5431 11.3963 16.0465 12.0015 16.0465C12.5912 16.0465 13.1033 16.5431 13.1033 17.1483C13.1033 17.7535 12.5912 18.2501 12.0015 18.2501Z" fill="#FF4747"/>
</svg>
