<svg width="24" height="24" viewBox="0 0 24 24" fill="none" xmlns="http://www.w3.org/2000/svg">
<g clip-path="url(#clip0_2523_382)">
<path d="M21.5268 13.3682C22.4962 12.9008 22.4962 11.5206 21.5268 11.0532L5.36585 3.27145C4.31722 2.76728 3.1915 3.80531 3.6094 4.89072L6.13589 11.4605L11.8274 11.4612C12.0216 11.468 12.2056 11.55 12.3405 11.6898C12.4755 11.8296 12.5509 12.0164 12.5509 12.2107C12.5509 12.405 12.4755 12.5918 12.3405 12.7316C12.2056 12.8714 12.0216 12.9534 11.8274 12.9602L6.13589 12.9609L3.6094 19.5307C3.19221 20.6168 4.31792 21.6534 5.36585 21.1499L21.5268 13.3682Z" fill="#6C5CE7"/>
</g>
<defs>
<clipPath id="clip0_2523_382">
<rect width="24" height="24" fill="white" transform="translate(1.04907e-06 24) rotate(-90)"/>
</clipPath>
</defs>
</svg>
